# xmcd
#
# Track frame offsets: 
#        150
#        18865
#        46060
#        76027
#        109942
#        138162
#        166380
#        198290
#
# Disc length: 3184 seconds
#
# Revision: 2
# Processed by: cddbd v1.5.2PL0 Copyright (c) Steve Scherf et al.
# Submitted via: ExactAudioCopy v1.0b3
#
DISCID=550c6e08
DTITLE=朱哲琴 Zhu ZheQing - 黃孩子 Yellow Children
DYEAR=1992
DGENRE=New Age
TTITLE0=大海走了 The Sea is Gone
TTITLE1=黃孩子 Yellow Children
TTITLE2=吹簫人 The Xiao Player
TTITLE3=不相識的父親 The Unknown Father
TTITLE4=緣 The Fate
TTITLE5=枯水季節 The Dry Season
TTITLE6=這才是你 This is You
TTITLE7=遠去的孩子 The Child Going Far Away
EXTD=YEAR: 1992
EXTT0=
EXTT1=
EXTT2=
EXTT3=
EXTT4=
EXTT5=
EXTT6=
EXTT7=
PLAYORDER=
